<svg width="48" height="48" viewBox="0 0 48 48" fill="none" xmlns="http://www.w3.org/2000/svg">
<g id="dashboard-tile-solid-svgrepo-com 1" clip-path="url(#clip0_3_41)">
<g id="Layer 2">
<g id="icons Q2">
<g id="Group">
<path id="Vector" d="M20 30H8C7.46957 30 6.96086 30.2107 6.58579 30.5858C6.21071 30.9609 6 31.4696 6 32V42C6 42.5304 6.21071 43.0391 6.58579 43.4142C6.96086 43.7893 7.46957 44 8 44H20C20.5304 44 21.0391 43.7893 21.4142 43.4142C21.7893 43.0391 22 42.5304 22 42V32C22 31.4696 21.7893 30.9609 21.4142 30.5858C21.0391 30.2107 20.5304 30 20 30Z" fill="white"/>
<path id="Vector_2" d="M20 4H8C7.46957 4 6.96086 4.21071 6.58579 4.58579C6.21071 4.96086 6 5.46957 6 6V24C6 24.5304 6.21071 25.0391 6.58579 25.4142C6.96086 25.7893 7.46957 26 8 26H20C20.5304 26 21.0391 25.7893 21.4142 25.4142C21.7893 25.0391 22 24.5304 22 24V6C22 5.46957 21.7893 4.96086 21.4142 4.58579C21.0391 4.21071 20.5304 4 20 4Z" fill="white"/>
<path id="Vector_3" d="M40 4H28C27.4696 4 26.9609 4.21071 26.5858 4.58579C26.2107 4.96086 26 5.46957 26 6V16C26 16.5304 26.2107 17.0391 26.5858 17.4142C26.9609 17.7893 27.4696 18 28 18H40C40.5304 18 41.0391 17.7893 41.4142 17.4142C41.7893 17.0391 42 16.5304 42 16V6C42 5.46957 41.7893 4.96086 41.4142 4.58579C41.0391 4.21071 40.5304 4 40 4Z" fill="white"/>
<path id="Vector_4" d="M40 22H28C27.4696 22 26.9609 22.2107 26.5858 22.5858C26.2107 22.9609 26 23.4696 26 24V42C26 42.5304 26.2107 43.0391 26.5858 43.4142C26.9609 43.7893 27.4696 44 28 44H40C40.5304 44 41.0391 43.7893 41.4142 43.4142C41.7893 43.0391 42 42.5304 42 42V24C42 23.4696 41.7893 22.9609 41.4142 22.5858C41.0391 22.2107 40.5304 22 40 22Z" fill="white"/>
</g>
</g>
</g>
</g>
<defs>
<clipPath id="clip0_3_41">
<rect width="48" height="48" fill="white"/>
</clipPath>
</defs>
</svg>
