<svg width="48" height="48" viewBox="0 0 48 48" fill="none" xmlns="http://www.w3.org/2000/svg">
<g id="graphic-for-education-svgrepo-com 1" clip-path="url(#clip0_5_87)">
<g id="Group">
<g id="Group_2">
<path id="Vector" d="M2.26647 45.0993V45.0483L10.7438 27.983C10.9476 28.0392 11.1602 28.0849 11.3833 28.0849C11.7224 28.0849 12.0422 28.0059 12.3321 27.8776L19.7956 35.8208C19.5672 36.1774 19.4302 36.5991 19.4302 37.0594C19.4302 38.3332 20.4633 39.3646 21.737 39.3646C23.0108 39.3646 24.0439 38.3297 24.0439 37.0594C24.0439 36.3514 23.7189 35.7259 23.2182 35.3025L27.7511 25.966H28.5628V25.6849H27.8881L31.8659 17.4905C32.017 17.5221 32.1716 17.5362 32.3332 17.5362C32.79 17.5362 33.2117 17.4026 33.5684 17.1742L41.5608 24.7116C41.3763 25.0419 41.2621 25.4161 41.2621 25.8255C41.2621 27.0993 42.2952 28.1306 43.5672 28.1306C44.8392 28.1306 45.8723 27.0975 45.8723 25.8255C45.8723 24.5517 44.8392 23.5186 43.5672 23.5186C43.1122 23.5186 42.6905 23.6539 42.3356 23.8805L34.3414 16.3449C34.5242 16.0129 34.6384 15.6386 34.6384 15.2328C34.6384 13.9555 33.607 12.9224 32.3332 12.9224C31.1069 12.9224 30.1124 13.8835 30.0404 15.0887H30.0035V15.3716H30.0404C30.0773 16.0181 30.383 16.5909 30.8504 16.9862L22.2044 34.8035C22.0551 34.7701 21.8969 34.7561 21.737 34.7561C21.3329 34.7561 20.957 34.8685 20.6266 35.053L13.2176 27.1625C13.4741 26.8269 13.634 26.4141 13.6709 25.9643H14.6266V25.6832H13.6814C13.6287 24.4515 12.6255 23.4694 11.3833 23.4694C10.1394 23.4694 9.13616 24.4515 9.08521 25.6832H8.82167V25.9643H9.09575C9.14319 26.53 9.38214 27.0378 9.75988 27.4138L5.03895 36.9136H4.17628V37.1982H4.89839L2.26647 42.499V0.639526H0V47.3605H48V45.0993H2.26647Z" fill="white"/>
<path id="Vector_2" d="M46.5435 4.53467H45.976V4.81578H46.5435V4.53467Z" fill="white"/>
<path id="Vector_3" d="M33.2029 4.53467H32.0433V4.81578H33.2029V4.53467Z" fill="white"/>
<path id="Vector_4" d="M7.66031 4.53467H6.49896V4.81578H7.66031V4.53467Z" fill="white"/>
<path id="Vector_5" d="M35.5274 4.53467H34.3678V4.81578H35.5274V4.53467Z" fill="white"/>
<path id="Vector_6" d="M9.983 4.53467H8.82166V4.81578H9.983V4.53467Z" fill="white"/>
<path id="Vector_7" d="M26.2366 4.53467H25.077V4.81578H26.2366V4.53467Z" fill="white"/>
<path id="Vector_8" d="M23.9157 4.53467H22.7543V4.81578H23.9157V4.53467Z" fill="white"/>
<path id="Vector_9" d="M30.882 4.53467H29.7206V4.81578H30.882V4.53467Z" fill="white"/>
<path id="Vector_10" d="M28.5611 4.53467H27.4015V4.81578H28.5611V4.53467Z" fill="white"/>
<path id="Vector_11" d="M5.3376 4.53467H4.1745V4.81578H5.3376V4.53467Z" fill="white"/>
<path id="Vector_12" d="M16.9476 4.53467H15.7863V4.81578H16.9476V4.53467Z" fill="white"/>
<path id="Vector_13" d="M44.8147 4.53467H43.6533V4.81578H44.8147V4.53467Z" fill="white"/>
<path id="Vector_14" d="M37.8483 4.53467H36.687V4.81578H37.8483V4.53467Z" fill="white"/>
<path id="Vector_15" d="M21.593 4.53467H20.4299V4.81578H21.593V4.53467Z" fill="white"/>
<path id="Vector_16" d="M19.2721 4.53467H18.1107V4.81578H19.2721V4.53467Z" fill="white"/>
<path id="Vector_17" d="M40.1692 4.53467H39.0096V4.81578H40.1692V4.53467Z" fill="white"/>
<path id="Vector_18" d="M12.3039 4.53467H11.1443V4.81578H12.3039V4.53467Z" fill="white"/>
<path id="Vector_19" d="M42.4919 4.53467H41.3323V4.81578H42.4919V4.53467Z" fill="white"/>
<path id="Vector_20" d="M14.6266 4.53467H13.4653V4.81578H14.6266V4.53467Z" fill="white"/>
<path id="Vector_21" d="M3.01671 4.53467H2.44922V4.81578H3.01671V4.53467Z" fill="white"/>
<path id="Vector_22" d="M46.8194 15.0869H46.2554V15.3698H46.8194V15.0869Z" fill="white"/>
<path id="Vector_23" d="M42.7748 15.0869H41.6117V15.3698H42.7748V15.0869Z" fill="white"/>
<path id="Vector_24" d="M40.4468 15.0869H39.2872V15.3698H40.4468V15.0869Z" fill="white"/>
<path id="Vector_25" d="M14.906 15.0869H13.7446V15.3698H14.906V15.0869Z" fill="white"/>
<path id="Vector_26" d="M12.5833 15.0869H11.4219V15.3698H12.5833V15.0869Z" fill="white"/>
<path id="Vector_27" d="M19.5479 15.0869H18.3883V15.3698H19.5479V15.0869Z" fill="white"/>
<path id="Vector_28" d="M38.1294 15.0869H36.9663V15.3698H38.1294V15.0869Z" fill="white"/>
<path id="Vector_29" d="M21.8723 15.0869H20.7092V15.3698H21.8723V15.0869Z" fill="white"/>
<path id="Vector_30" d="M45.094 15.0869H43.9326V15.3698H45.094V15.0869Z" fill="white"/>
<path id="Vector_31" d="M17.227 15.0869H16.0656V15.3698H17.227V15.0869Z" fill="white"/>
<path id="Vector_32" d="M28.8369 15.0869H27.6755V15.3698H28.8369V15.0869Z" fill="white"/>
<path id="Vector_33" d="M5.61696 15.0869H4.45386V15.3698H5.61696V15.0869Z" fill="white"/>
<path id="Vector_34" d="M26.5177 15.0869H25.3564V15.3698H26.5177V15.0869Z" fill="white"/>
<path id="Vector_35" d="M24.195 15.0869H23.0337V15.3698H24.195V15.0869Z" fill="white"/>
<path id="Vector_36" d="M7.9379 15.0869H6.77655V15.3698H7.9379V15.0869Z" fill="white"/>
<path id="Vector_37" d="M35.805 15.0869H34.6436V15.3698H35.805V15.0869Z" fill="white"/>
<path id="Vector_38" d="M10.2606 15.0869H9.09924V15.3698H10.2606V15.0869Z" fill="white"/>
<path id="Vector_39" d="M3.29255 15.0869H2.72681V15.3698H3.29255V15.0869Z" fill="white"/>
<path id="Vector_40" d="M46.5435 25.6814H45.976V25.9625H46.5435V25.6814Z" fill="white"/>
<path id="Vector_41" d="M21.593 25.6814H20.4299V25.9625H21.593V25.6814Z" fill="white"/>
<path id="Vector_42" d="M23.9157 25.6814H22.7543V25.9625H23.9157V25.6814Z" fill="white"/>
<path id="Vector_43" d="M26.2366 25.6814H25.077V25.9625H26.2366V25.6814Z" fill="white"/>
<path id="Vector_44" d="M33.2029 25.6814H32.0433V25.9625H33.2029V25.6814Z" fill="white"/>
<path id="Vector_45" d="M40.1692 25.6814H39.0096V25.9625H40.1692V25.6814Z" fill="white"/>
<path id="Vector_46" d="M35.5274 25.6814H34.3678V25.9625H35.5274V25.6814Z" fill="white"/>
<path id="Vector_47" d="M19.2721 25.6814H18.1107V25.9625H19.2721V25.6814Z" fill="white"/>
<path id="Vector_48" d="M30.882 25.6814H29.7206V25.9625H30.882V25.6814Z" fill="white"/>
<path id="Vector_49" d="M37.8483 25.6814H36.687V25.9625H37.8483V25.6814Z" fill="white"/>
<path id="Vector_50" d="M5.3376 25.6814H4.1745V25.9625H5.3376V25.6814Z" fill="white"/>
<path id="Vector_51" d="M7.66031 25.6814H6.49896V25.9625H7.66031V25.6814Z" fill="white"/>
<path id="Vector_52" d="M16.9476 25.6814H15.7863V25.9625H16.9476V25.6814Z" fill="white"/>
<path id="Vector_53" d="M3.01671 25.6814H2.44922V25.9625H3.01671V25.6814Z" fill="white"/>
<path id="Vector_54" d="M46.5435 36.9154H45.976V37.2H46.5435V36.9154Z" fill="white"/>
<path id="Vector_55" d="M7.66031 36.9154H6.49896V37.2H7.66031V36.9154Z" fill="white"/>
<path id="Vector_56" d="M26.2366 36.9154H25.077V37.2H26.2366V36.9154Z" fill="white"/>
<path id="Vector_57" d="M19.2721 36.9154H18.1107V37.2H19.2721V36.9154Z" fill="white"/>
<path id="Vector_58" d="M9.983 36.9154H8.82166V37.2H9.983V36.9154Z" fill="white"/>
<path id="Vector_59" d="M12.3057 36.9154H11.1443V37.2H12.3057V36.9154Z" fill="white"/>
<path id="Vector_60" d="M14.6284 36.9154H13.467V37.2H14.6284V36.9154Z" fill="white"/>
<path id="Vector_61" d="M28.5611 36.9154H27.4015V37.2H28.5611V36.9154Z" fill="white"/>
<path id="Vector_62" d="M16.9493 36.9154H15.788V37.2H16.9493V36.9154Z" fill="white"/>
<path id="Vector_63" d="M40.1692 36.9154H39.0114V37.2H40.1692V36.9154Z" fill="white"/>
<path id="Vector_64" d="M42.4919 36.9154H41.3323V37.2H42.4919V36.9154Z" fill="white"/>
<path id="Vector_65" d="M44.8164 36.9154H43.6568V37.2H44.8164V36.9154Z" fill="white"/>
<path id="Vector_66" d="M35.5309 36.9154H34.3678V37.2H35.5309V36.9154Z" fill="white"/>
<path id="Vector_67" d="M33.2029 36.9154H32.0433V37.2H33.2029V36.9154Z" fill="white"/>
<path id="Vector_68" d="M37.8501 36.9154H36.6887V37.2H37.8501V36.9154Z" fill="white"/>
<path id="Vector_69" d="M30.8855 36.9154H29.7224V37.2H30.8855V36.9154Z" fill="white"/>
<path id="Vector_70" d="M3.01671 36.9154H2.44922V37.2H3.01671V36.9154Z" fill="white"/>
</g>
</g>
</g>
<defs>
<clipPath id="clip0_5_87">
<rect width="48" height="48" fill="white"/>
</clipPath>
</defs>
</svg>
