<svg width="30" height="29" viewBox="0 0 30 29" fill="none" xmlns="http://www.w3.org/2000/svg">
<g id="map-marker-svgrepo-com 1" clip-path="url(#clip0_6_220)">
<g id="Group">
<path id="Vector" d="M15 0C9.47712 0 5 4.29058 5 9.58333C5 11.2856 5.477 12.8776 6.289 14.2624C6.42387 14.4924 6.56525 14.7188 6.71875 14.9368L15 28.75L23.2812 14.9368C23.4087 14.7559 23.5187 14.5643 23.6325 14.375L23.7112 14.2624C24.5225 12.8776 25 11.2856 25 9.58333C25 4.29058 20.5225 0 15 0ZM15 4.79167C17.7612 4.79167 20 6.93702 20 9.58333C20 12.2295 17.7612 14.375 15 14.375C12.2386 14.375 10 12.2295 10 9.58333C10 6.93702 12.2386 4.79167 15 4.79167Z" fill="#E74C3C"/>
<path id="Vector_2" d="M15 3.59375C11.5483 3.59375 8.75 6.27541 8.75 9.58333C8.75 12.8908 11.5483 15.5729 15 15.5729C18.4512 15.5729 21.25 12.8908 21.25 9.58333C21.25 6.27541 18.4512 3.59375 15 3.59375ZM15 5.98958C17.0712 5.98958 18.75 7.59851 18.75 9.58333C18.75 11.5682 17.0712 13.1771 15 13.1771C12.9288 13.1771 11.25 11.5682 11.25 9.58333C11.25 7.59851 12.9288 5.98958 15 5.98958Z" fill="#C0392B"/>
</g>
</g>
<defs>
<clipPath id="clip0_6_220">
<rect width="30" height="28.75" fill="white"/>
</clipPath>
</defs>
</svg>
